<?xml version="1.0" encoding="utf-8"?>
<!-- Generator: Adobe Illustrator 27.10.0, SVG Export Plug-In . SVG Version: 6.00 Build 0)  -->
<svg version="1.1" id="Layer" xmlns="http://www.w3.org/2000/svg" xmlns:xlink="http://www.w3.org/1999/xlink" x="0px" y="0px"
	 viewBox="0 0 24 24" style="enable-background:new 0 0 24 24;" xml:space="preserve">
<style type="text/css">
	.st0{opacity:0.4;fill:#6F6259;enable-background:new    ;}
	.st1{fill:#6F6259;}
</style>
<g id="building">
	<path class="st0" d="M4.5,21h15V6c0.2-1.4-0.8-2.8-2.3-3c-0.2,0-0.5,0-0.7,0h-9c-1.4-0.2-2.8,0.8-3,2.3c0,0.2,0,0.5,0,0.7V21z"/>
	<path class="st1" d="M21,20.2h-6.8v-2.8c0.1-0.7-0.4-1.4-1.1-1.5c-0.1,0-0.3,0-0.4,0h-1.5c-0.7-0.1-1.4,0.4-1.5,1.1
		c0,0.1,0,0.3,0,0.4v2.8H3c-0.4,0-0.8,0.3-0.8,0.8s0.3,0.8,0.8,0.8h18c0.4,0,0.8-0.3,0.8-0.8S21.4,20.2,21,20.2z"/>
	<path class="st1" d="M15,13.8h-1c-0.4,0-0.8-0.3-0.8-0.8s0.3-0.8,0.8-0.8h1c0.4,0,0.8,0.3,0.8,0.8S15.4,13.8,15,13.8z M10.8,13
		c0-0.4-0.3-0.8-0.8-0.8H9c-0.4,0-0.8,0.3-0.8,0.8s0.3,0.8,0.8,0.8h1C10.4,13.8,10.8,13.4,10.8,13z M15.8,10c0-0.4-0.3-0.8-0.8-0.8
		h-1c-0.4,0-0.8,0.3-0.8,0.8s0.3,0.8,0.8,0.8h1C15.4,10.8,15.8,10.4,15.8,10z M10.8,10c0-0.4-0.3-0.8-0.8-0.8H9
		c-0.4,0-0.8,0.3-0.8,0.8s0.3,0.8,0.8,0.8h1C10.4,10.8,10.8,10.4,10.8,10z M15.8,7c0-0.4-0.3-0.8-0.8-0.8h-1c-0.4,0-0.8,0.3-0.8,0.8
		s0.3,0.8,0.8,0.8h1C15.4,7.8,15.8,7.4,15.8,7z M10.8,7c0-0.4-0.3-0.8-0.8-0.8H9C8.6,6.2,8.2,6.6,8.2,7S8.6,7.8,9,7.8h1
		C10.4,7.8,10.8,7.4,10.8,7z"/>
</g>
</svg>
